<svg width="150" height="150" viewBox="0 0 150 150" fill="none" xmlns="http://www.w3.org/2000/svg">
<path d="M33.3333 33.3333C33.3333 36 34.3917 38.5583 36.2792 40.4458C36.4079 40.5744 36.5015 40.7337 36.5513 40.9086C36.6011 41.0836 36.6053 41.2683 36.5635 41.4454C36.5218 41.6224 36.4355 41.7858 36.3128 41.9201C36.1901 42.0543 36.0351 42.155 35.8625 42.2125L33.5458 42.9833C31.0572 43.8132 28.8928 45.405 27.359 47.5332C25.8252 49.6615 25 52.2183 25 54.8417V131.721C25 131.729 25.0056 131.735 25.0167 131.737C25.0167 131.767 25 131.796 25 131.825C25 139.308 47.3875 145.375 75 145.375C102.612 145.375 125 139.308 125 131.825L124.983 131.737L124.995 131.733L125 131.721V54.8417C125 52.2183 124.175 49.6615 122.641 47.5332C121.107 45.405 118.943 43.8132 116.454 42.9833L113.142 41.8792C113.074 41.857 113.014 41.818 112.966 41.7659C112.918 41.7139 112.884 41.6505 112.867 41.5817C112.851 41.5129 112.852 41.441 112.871 41.3727C112.89 41.3045 112.925 41.2422 112.975 41.1917L113.717 40.45C115.603 38.5617 116.664 36.0025 116.667 33.3333H33.3333Z" fill="#C4C9C8"/>
<path d="M120.833 28.3333C120.833 35.2375 100.313 41.6667 75 41.6667C49.6875 41.6667 29.1667 35.2375 29.1667 28.3333C29.1667 21.4292 49.6875 16.6667 75 16.6667C100.313 16.6667 120.833 21.4292 120.833 28.3333Z" fill="#F19020"/>
<path d="M29.1667 16.6667H120.833V28.3333H29.1667V16.6667Z" fill="#F19020"/>
<path d="M75 29.1667C100.313 29.1667 120.833 23.5702 120.833 16.6667C120.833 9.76311 100.313 4.16667 75 4.16667C49.687 4.16667 29.1667 9.76311 29.1667 16.6667C29.1667 23.5702 49.687 29.1667 75 29.1667Z" fill="#F9CA55"/>
<path d="M75 139.583C100.313 139.583 120.833 133.987 120.833 127.083C120.833 120.18 100.313 114.583 75 114.583C49.687 114.583 29.1667 120.18 29.1667 127.083C29.1667 133.987 49.687 139.583 75 139.583Z" fill="#AEB3B2"/>
<path d="M43.6042 16.6667C48.1834 14.2417 60.4917 12.5 75 12.5C89.5084 12.5 101.817 14.2417 106.396 16.6667C107.629 16.0125 108.333 15.3167 108.333 14.5833C108.333 11.1333 93.4084 8.33333 75 8.33333C56.5917 8.33333 41.6667 11.1333 41.6667 14.5833C41.6667 15.3167 42.3709 16.0125 43.6042 16.6667Z" fill="#F19020"/>
<path d="M75 50C70.2291 50 53.6291 49.7083 40.2708 45.9417C40.0073 45.8675 39.7611 45.7422 39.546 45.5729C39.331 45.4036 39.1514 45.1935 39.0175 44.9548C38.8837 44.7161 38.7981 44.4533 38.7658 44.1816C38.7335 43.9098 38.755 43.6343 38.8291 43.3708C38.9033 43.1074 39.0286 42.8611 39.1979 42.646C39.3672 42.431 39.5773 42.2514 39.816 42.1176C40.0547 41.9837 40.3175 41.8981 40.5892 41.8658C40.861 41.8335 41.1365 41.855 41.4 41.9292C54.2458 45.5542 70.3666 45.8333 75 45.8333C79.6333 45.8333 95.7541 45.5542 108.596 41.9292C109.116 41.8139 109.661 41.9022 110.119 42.1761C110.577 42.4499 110.912 42.8885 111.056 43.4018C111.201 43.9151 111.143 44.4643 110.896 44.9366C110.648 45.4089 110.229 45.7685 109.725 45.9417C96.3708 49.7083 79.7708 50 75 50Z" fill="#AEB3B2"/>
<path d="M41.6667 129.167C40.5616 129.167 39.5018 128.728 38.7204 127.946C37.939 127.165 37.5 126.105 37.5 125V58.3333C37.5 57.2283 37.939 56.1685 38.7204 55.3871C39.5018 54.6057 40.5616 54.1667 41.6667 54.1667C42.7717 54.1667 43.8315 54.6057 44.6129 55.3871C45.3943 56.1685 45.8333 57.2283 45.8333 58.3333V125C45.8333 126.105 45.3943 127.165 44.6129 127.946C43.8315 128.728 42.7717 129.167 41.6667 129.167Z" fill="white"/>
</svg>
