<svg width="241" height="59" viewBox="0 0 241 59" fill="none" xmlns="http://www.w3.org/2000/svg">
<path fill-rule="evenodd" clip-rule="evenodd" d="M173.087 6.2129C172.159 6.67987 172.158 7.86445 173.085 9.01802C175.519 12.0463 176.161 16.002 176.135 27.8009C176.112 38.2763 175.399 44.0735 173.573 48.6353C173.164 49.6568 172.86 50.7015 172.899 50.9569C172.937 51.2125 173.269 51.6449 173.636 51.9185C174.271 52.3909 174.629 52.4191 180.889 52.4882C186.338 52.5483 187.622 52.4996 188.327 52.2047C189.739 51.6148 189.822 51.0587 188.864 48.6062C187.122 44.1495 186.485 38.4221 186.47 27.0909C186.454 15.0058 186.863 11.8352 188.811 8.94205C189.904 7.31843 189.91 6.70046 188.834 6.251C187.719 5.78522 174.003 5.75209 173.087 6.2129ZM203.264 7.1705C201.962 7.85332 200.258 8.65472 199.477 8.95152C197.065 9.86817 196.509 10.1536 196.355 10.555C196.181 11.0083 196.174 10.9976 198.182 13.3093C200.028 15.4349 201.747 18.146 205.259 24.4729C206.874 27.3813 207.879 29.4501 207.879 29.865C207.879 31.1721 207.785 31.3312 199.865 43.4217C198.501 45.5045 196.711 48.0942 195.887 49.1766C194.386 51.1469 194.13 51.7987 194.684 52.2366C195.15 52.6046 205.065 52.8008 205.757 52.4558C206.081 52.2941 206.771 51.3595 207.362 50.2821C209.213 46.9066 213.599 39.1911 214.323 38.0373C215.106 36.7895 215.598 36.6442 216.329 37.4456C217.423 38.6451 223.366 47.0746 224.823 49.4925C226.703 52.6134 227.026 52.8134 228.793 51.949C233.382 49.7046 237.118 47.6306 237.18 47.294C237.222 47.0675 236.296 45.8846 234.958 44.4539C231.625 40.8907 229.548 38.3913 226.218 33.9363C222.376 28.7954 222.393 29.3192 225.915 24.6727C233.546 14.6037 236.517 10.6168 236.517 10.4469C236.517 9.89681 235.646 9.35766 233.018 8.28171C231.418 7.62682 229.585 6.82495 228.943 6.49952C228.301 6.17432 227.522 5.90806 227.213 5.90806C226.645 5.90806 225.866 6.55656 225.866 7.02992C225.866 7.25453 219.349 17.1979 219 17.5053C218.926 17.5704 218.257 18.5557 217.513 19.6946C216.769 20.8335 216.056 21.7656 215.929 21.7656C215.801 21.7656 215.414 21.2063 215.067 20.523C214.721 19.8395 213.209 17.0971 211.707 14.4285C210.205 11.76 208.565 8.83436 208.062 7.9274C207.56 7.02045 207.02 6.19657 206.863 6.09669C206.298 5.73812 205.593 5.94829 203.264 7.1705ZM106.051 6.40295C105.304 6.4865 102.429 6.62543 99.6608 6.71158C96.8926 6.79797 93.2965 6.92128 91.6693 6.98613C90.0422 7.05074 87.4233 7.15039 85.8494 7.20743C81.4377 7.36718 81.086 7.63534 81.3776 10.6173C81.7094 14.0082 81.3241 44.4307 80.8858 49.4606C80.598 52.7644 81.0784 52.9715 88.0619 52.5511C90.7619 52.3886 96.539 52.1985 100.9 52.1287C109.253 51.9952 109.808 51.9213 110.372 50.8684C111.357 49.0275 111.933 42.5365 111.179 41.7818C110.535 41.1382 109.504 41.2182 106.817 42.1205C104.265 42.977 100.428 43.5401 97.1411 43.5401C94.1852 43.5401 93.2705 43.2972 92.8636 42.4045C92.4028 41.3927 92.3275 36.2416 92.7607 35.3472C93.2809 34.2726 94.2411 34.0722 99.2431 33.9931C103.719 33.9226 104.556 33.769 105.086 32.9203C105.5 32.2578 106.405 26.5467 106.238 25.6547C106.01 24.4419 105.535 24.3023 102.729 24.6235C99.8274 24.9555 94.7128 24.9248 93.9353 24.5707C93.0707 24.1769 92.9155 23.5139 93.0063 20.6049C93.1072 17.3811 93.3663 16.2614 94.0934 15.9066C95.2972 15.3194 97.2228 15.0739 99.4611 15.2223C101.564 15.362 102.19 15.4308 104.095 15.7331C107.862 16.3305 109.011 16.1681 109.631 14.9502C110.15 13.9298 110.604 11.2776 110.604 9.25991C110.604 7.94279 110.549 7.80244 109.767 7.11607C109.307 6.71206 108.801 6.37242 108.643 6.36177C108.485 6.35088 108.142 6.32154 107.882 6.29645C107.622 6.27136 106.798 6.31941 106.051 6.40295ZM151.668 6.71135C151.277 6.88483 150.783 7.22778 150.57 7.47322C149.829 8.32834 147.223 13.0887 145.097 17.4717C142.378 23.0772 141.539 24.4258 140.832 24.3255C139.977 24.2038 138.743 21.4967 136.603 15.0481C134.577 8.94536 133.88 7.5312 132.666 7.06187C132.148 6.86164 124.179 6.73217 118.952 6.83915C118.407 6.85028 118.076 7.02589 117.798 7.45097C117.426 8.01758 117.441 8.13687 118.088 9.87693L118.769 11.7067L118.759 20.4638C118.753 25.2803 118.676 29.9665 118.587 30.8777C118.228 34.5704 117.687 38.9868 117.47 39.9899C117.343 40.5757 117.073 42.0452 116.871 43.2556C116.668 44.466 116.187 46.7026 115.802 48.2258C115.417 49.7491 115.102 51.222 115.101 51.4991C115.1 52.5779 115.497 52.6477 122.075 52.7253C127.854 52.7937 128.304 52.7687 128.819 52.3519C129.363 51.9116 129.367 51.878 129.072 50.0303C128.908 48.9991 128.68 47.5695 128.565 46.8536C127.904 42.7062 127.566 26.8092 128.125 26.1358C128.343 25.8724 128.497 25.8497 128.733 26.0454C129.142 26.3846 130.349 28.5505 132.097 32.0815C134.043 36.0125 134.091 36.1199 135.749 40.2445C137.592 44.8328 137.734 45.0548 138.827 45.0548C140.842 45.0548 143.186 42.7207 145.374 38.5343C147.625 34.2279 150.975 28.0688 151.638 27.0196C152.407 25.8014 152.916 25.5463 153.362 26.1562C153.616 26.5037 153.665 27.4279 153.586 30.3958C153.531 32.4834 153.43 34.4575 153.362 34.7829C153.294 35.1084 153.177 36.0321 153.102 36.8356C152.776 40.3179 151.53 46.4522 150.616 49.08C149.811 51.3924 149.983 52.2106 151.337 52.5081C152.43 52.7483 166.263 52.6936 166.652 52.4475C167.373 51.9914 167.385 51.203 166.704 49.0701C165.918 46.6117 165.416 43.7909 164.921 39.0432C164.723 37.1556 164.504 35.1853 164.433 34.6646C164.194 32.9226 164.114 14.0993 164.337 12.1067C164.458 11.0251 164.717 9.59883 164.914 8.93755C165.206 7.95368 165.217 7.62327 164.975 7.11749L164.679 6.49976L158.528 6.44769C153.824 6.40792 152.21 6.46993 151.668 6.71135ZM22.6773 6.76744C18.8521 7.01169 10.5007 7.85285 8.76984 8.16834C7.69745 8.36384 5.94507 8.672 4.87599 8.85329C3.80691 9.03459 2.82162 9.25115 2.68671 9.33446C2.18093 9.64712 2.47583 10.5003 3.5771 11.9098C5.01776 13.7537 5.3148 14.2486 5.94105 15.8486C8.29175 21.8548 8.97386 33.0209 7.50976 41.5283C6.88303 45.1691 5.58982 48.4235 3.82892 50.7895C3.31036 51.4863 3.14705 51.9112 3.26066 52.2688C3.419 52.7677 3.46751 52.7706 11.9399 52.7706C17.3603 52.7706 20.6265 52.6813 20.9179 52.5256C21.573 52.1748 21.5039 51.0823 20.6845 48.8369C19.7634 46.3132 19.2727 43.835 19.21 41.3884C19.1549 39.2387 19.2732 38.8065 19.9179 38.8065C20.142 38.8065 22.4234 38.2855 24.9876 37.6489C30.9651 36.1647 33.4652 35.0177 35.7868 32.694C37.5484 30.9307 38.8106 28.8586 39.6321 26.3808C40.1197 24.9103 40.1805 24.2848 40.1727 20.8189C40.1644 17.1371 40.1268 16.8192 39.5175 15.263C38.6608 13.0749 37.6752 11.5803 36.2365 10.2866C34.8775 9.06488 32.3128 7.74114 30.2511 7.19749C28.7898 6.81217 25.184 6.60744 22.6773 6.76744ZM48.1204 7.60197C45.6968 7.828 43.2571 8.36479 42.7532 8.783C42.2436 9.20595 42.3889 9.80096 43.2713 10.9041C43.7283 11.4757 44.3013 12.5824 44.5441 13.3635C45.5346 16.5473 45.6312 17.9082 45.618 28.5109C45.6042 39.5328 45.4154 42.0478 44.1905 47.5246C43.3295 51.3753 43.3854 52.3651 44.4876 52.784C45.3212 53.101 55.4442 53.0697 56.3689 52.7474C56.8299 52.5867 57.1255 52.3159 57.1438 52.0373C57.1601 51.7898 57.1909 51.4541 57.2124 51.2913C57.2337 51.1287 57.0519 50.3564 56.8084 49.5754C55.7978 46.3345 55.6248 45.1211 55.6001 41.1058C55.5803 37.8517 55.6385 37.0943 55.9227 36.9182C56.527 36.5443 56.2105 36.114 62.7919 46.2619C64.6491 49.1257 66.424 51.7351 66.7359 52.0605C67.5927 52.9547 68.9055 52.8169 73.2084 51.3815C76.9855 50.1214 77.8333 49.604 77.5159 48.7534C77.4248 48.5091 76.3768 47.2095 75.1868 45.8654C70.5448 40.6218 66.8923 35.8515 66.0036 33.8719C65.4479 32.6339 65.5714 32.3645 67.1908 31.282C71.3294 28.5154 73.5674 24.5745 73.6623 19.8859C73.7085 17.6019 73.344 16.1158 72.1284 13.6333C71.3897 12.1247 69.3176 10.0137 67.8308 9.25517C66.4079 8.52928 63.7168 7.85924 61.0878 7.5757C58.4041 7.28648 51.3517 7.30091 48.1204 7.60197ZM60.324 16.5679C60.7773 16.8478 61.4385 17.4582 61.7936 17.9243C62.3822 18.6968 62.439 18.9515 62.4338 20.8011C62.429 22.5343 62.3358 23.0072 61.7959 24.0396C60.7193 26.0985 57.4761 28.5474 56.0917 28.3467C55.3793 28.2432 55.2809 27.4613 55.3121 22.1504C55.3386 17.6071 55.3471 17.5349 55.9178 16.9276C57.0089 15.766 58.7913 15.6204 60.324 16.5679ZM25.4273 16.5697C28.019 17.2568 29.3593 20.6035 28.3851 23.9546C27.8966 25.635 26.1189 27.6499 24.3791 28.4951C22.7211 29.3003 20.6464 29.5362 19.8441 29.0106L19.2455 28.6184V22.9887C19.2455 18.6319 19.3179 17.2601 19.5655 16.9215C20.0999 16.1906 23.2783 16.0001 25.4273 16.5697Z" fill="white"/>
</svg>
